<svg width="1286" height="660" viewBox="0 0 1286 660" fill="none" xmlns="http://www.w3.org/2000/svg">
<path fill-rule="evenodd" clip-rule="evenodd" d="M143.218 441.249H30.7125C29.0927 441.249 27.8323 439.983 27.8323 438.368C27.8323 436.749 29.0927 435.483 30.7125 435.483H994.056C995.671 435.483 996.936 436.749 996.936 438.368C996.936 439.983 995.671 441.249 994.056 441.249H863.348C865.27 450.603 870.931 461.728 872.145 467.947C872.853 471.639 872.093 476.743 870.879 479.223C869.869 481.295 865.218 480.436 864.916 482.712C864.614 485.139 869.567 489.894 869.061 493.837C868.504 498.389 862.338 505.415 861.577 509.967C860.921 513.759 863.754 517.65 864.358 521.243C864.916 524.629 865.775 529.181 865.218 531.504C864.713 533.426 861.124 533.478 860.77 535.4C860.364 537.571 863.244 541.519 862.843 544.452C862.436 547.332 860.364 550.368 858.39 552.795C856.317 555.322 852.629 558.254 850.452 559.723C848.936 560.733 846.056 559.973 845.296 561.691C844.082 564.374 844.134 571.806 843.223 575.853C842.416 579.337 841.249 583.384 839.733 586.014C838.468 588.29 835.791 590.462 834.322 591.577C833.416 592.285 831.744 591.78 830.989 592.686C829.421 594.561 827.296 600.223 824.869 602.853C822.593 605.327 818.853 607.301 816.374 608.415C814.4 609.275 811.723 608.212 809.952 609.525C807.525 611.348 804.796 616.452 801.91 619.384C799.03 622.316 795.442 625.655 792.457 627.327C789.978 628.738 786.338 629.144 784.114 629.4C782.447 629.598 780.624 628.285 779.108 628.993C777.134 629.905 774.91 633.29 772.431 634.962C769.754 636.78 765.811 638.603 762.978 639.816C760.551 640.827 757.77 641.785 755.442 642.191C753.369 642.545 751.145 641.483 749.176 642.191C745.483 643.504 738.707 647.603 733.348 649.978C727.687 652.457 720.098 655.691 715.145 657.056C711.353 658.118 706.801 658.624 703.463 658.322C700.483 658.014 698.004 655.035 694.968 655.134C690.723 655.238 683.035 658.217 677.879 659.03C673.275 659.738 668.02 660.04 663.973 659.988C660.483 659.988 656.593 659.634 653.556 658.879C650.775 658.17 647.947 656.801 645.619 655.389C643.395 654.072 641.473 651.598 639.65 650.535C638.088 649.624 636.265 649.321 634.494 648.863C631.968 648.259 627.619 648.155 624.483 646.79C620.843 645.176 616.041 642.545 612.702 639.306C607.9 634.655 600.468 626.363 595.765 618.879C587.015 604.978 570.733 577.67 560.317 555.926C549.348 532.92 536.806 498.941 529.728 480.889C526.593 472.801 522.65 464.863 520.119 456.572C520.223 464.764 520.322 473.306 520.119 480.186C519.817 493.28 518.452 509.462 517.593 519.368C517.035 526.144 516.983 533.176 515.114 539.644C513.244 546.118 509.551 558.509 506.364 558.254C505.405 558.155 504.192 556.941 502.978 555.066C503.634 555.269 504.395 555.42 505.202 555.42C507.983 555.42 510.259 553.905 510.259 552.035C509.098 552.592 507.228 553.045 505.202 553.045C503.838 553.045 502.525 552.842 501.463 552.54C499.134 548.243 496.963 542.327 495.952 538.129C493.525 527.915 492.207 510.874 491.806 497.124C491.348 483.014 492.713 465.624 493.171 453.332C493.322 449.54 493.525 445.447 493.775 441.4H489.832C489.78 441.603 489.78 441.754 489.728 441.957C488.061 453.639 482.348 464.358 478.051 475.332C471.02 493.379 458.483 527.358 447.457 550.368C437.041 572.108 420.759 599.415 412.015 613.316C407.311 620.801 399.879 629.092 395.077 633.749C391.739 636.983 386.884 639.66 383.244 641.228C380.108 642.592 375.759 642.696 373.233 643.301C371.463 643.707 369.64 644.061 368.072 644.973C366.202 646.035 364.28 648.509 362.108 649.827C359.78 651.191 356.999 652.608 354.171 653.316C351.134 654.071 347.244 654.426 343.754 654.426C339.707 654.478 334.447 654.176 329.848 653.467C324.692 652.655 317.004 649.676 312.759 649.572C309.723 649.473 307.296 652.504 304.265 652.759C300.926 653.061 296.374 652.556 292.582 651.493C287.629 650.129 280.041 646.894 274.379 644.415C268.968 642.087 262.244 637.941 258.551 636.629C256.582 635.92 254.358 636.983 252.28 636.629C250.009 636.223 247.176 635.311 244.749 634.254C241.916 633.04 237.973 631.165 235.296 629.4C232.817 627.728 230.593 624.342 228.619 623.431C227.103 622.723 225.28 624.04 223.614 623.837C221.39 623.582 217.749 623.129 215.27 621.764C212.285 620.092 208.697 616.759 205.817 613.822C202.884 610.842 200.15 605.785 197.775 603.962C196.056 602.65 193.327 603.764 191.353 602.853C188.874 601.738 185.186 599.769 182.858 597.29C180.431 594.66 178.306 589.045 176.739 587.129C175.983 586.217 174.364 586.723 173.405 586.014C171.936 584.9 169.259 582.728 167.994 580.452C166.525 577.822 165.311 573.78 164.504 570.29C163.593 566.243 163.645 558.811 162.431 556.129C161.671 554.462 158.791 555.223 157.275 554.207C155.098 552.743 151.405 549.811 149.332 547.28C147.364 544.806 145.291 541.821 144.884 538.941C144.478 536.056 147.364 532.061 146.957 529.889C146.603 527.967 143.015 527.915 142.509 525.993C141.9 523.618 142.759 519.118 143.369 515.681C143.973 512.087 146.806 508.249 146.15 504.405C145.343 499.853 139.223 492.827 138.614 488.275C138.16 484.332 143.114 479.577 142.811 477.15C142.509 474.874 137.858 475.733 136.848 473.66C135.634 471.181 134.874 466.129 135.582 462.384C136.848 457.327 140.739 449.139 143.218 441.249ZM703.16 629.801C704.322 630.41 704.374 634.301 703.416 636.223C702.249 638.65 697.702 643.858 696.03 644.264C694.416 644.67 693.603 640.676 693.655 638.754C693.754 636.78 694.968 634.098 696.535 632.634C698.207 631.118 702.051 629.196 703.16 629.801ZM652.395 623.582C652.952 621.358 657.504 620.598 660.03 618.983C662.66 617.311 665.999 613.723 668.223 613.572C670.447 613.42 672.369 616.707 673.478 618.17C674.39 619.337 674.947 620.853 675.15 622.316C675.4 624.087 675.957 626.821 674.999 628.738C674.035 630.712 671.556 633.087 669.285 634.301C667.056 635.514 663.619 636.275 661.494 635.973C659.473 635.665 657.702 633.999 656.489 632.332C655.025 630.259 651.785 625.806 652.395 623.582ZM743.41 623.686C744.775 623.332 747.759 624.191 749.02 625.098C750.285 626.009 751.4 627.78 751.098 629.197C750.791 630.613 748.468 633.342 747.202 633.644C745.936 633.946 744.676 631.978 743.561 630.915C742.499 629.853 740.681 628.54 740.681 627.374C740.681 626.113 742.046 624.04 743.41 623.686ZM305.478 618.728C304.311 619.337 304.265 623.228 305.223 625.15C306.384 627.577 310.936 632.785 312.603 633.191C314.223 633.592 315.082 629.598 314.983 627.681C314.879 625.759 313.666 623.025 312.098 621.561C310.483 620.045 306.588 618.124 305.478 618.728ZM567.395 485.999C565.275 485.697 566.994 499.754 567.801 506.577C568.864 515.426 571.035 528.374 573.921 538.988C577.306 551.629 582.515 569.582 588.228 582.624C593.588 594.811 602.541 609.728 608.405 617.113C612.098 621.764 618.921 625.858 623.27 626.822C627.166 627.681 632.421 626.264 634.546 622.926C636.671 619.587 637.478 612.004 636.061 606.795C633.838 598.4 627.009 583.587 621.197 572.613C614.624 560.176 603.4 542.884 596.572 532.165C591.468 524.071 585.296 516.082 580.442 508.4C575.843 501.066 569.52 486.301 567.395 485.999ZM356.244 612.509C355.634 610.285 351.134 609.525 348.608 607.91C345.978 606.238 342.64 602.65 340.416 602.499C338.192 602.348 336.27 605.634 335.155 607.098C334.197 608.264 333.692 609.78 333.489 611.243C333.233 613.014 332.681 615.743 333.64 617.665C334.603 619.639 337.077 622.014 339.353 623.228C341.577 624.441 345.015 625.202 347.14 624.9C349.166 624.592 350.931 622.926 352.145 621.259C353.614 619.233 356.848 614.733 356.244 612.509ZM265.228 612.608C263.864 612.259 260.879 613.118 259.614 614.025C258.4 614.936 257.239 616.707 257.541 618.124C257.843 619.54 260.171 622.269 261.436 622.572C262.697 622.874 263.963 620.905 265.077 619.842C266.14 618.78 267.905 617.462 267.957 616.249C267.957 615.035 266.593 612.962 265.228 612.608ZM440.681 480.384C442.806 480.082 441.088 494.139 440.28 500.967C439.218 509.816 437.041 522.759 434.16 533.379C430.775 546.019 425.567 564.019 419.853 577.014C414.494 589.202 405.541 604.113 399.676 611.499C395.983 616.15 389.16 620.243 384.811 621.207C380.916 622.066 375.707 620.65 373.535 617.311C371.41 613.978 370.603 606.389 372.02 601.181C374.244 592.79 381.067 577.973 386.884 567.004C393.457 554.561 404.681 537.269 411.509 526.551C416.614 518.462 422.785 510.473 427.64 502.785C432.239 495.504 438.561 480.691 440.681 480.384ZM694.061 606.238C694.666 604.014 699.166 603.254 701.697 601.639C704.322 599.967 707.66 596.379 709.884 596.228C712.108 596.077 713.983 599.363 715.145 600.827C716.056 601.993 716.608 603.509 716.811 604.978C717.067 606.743 717.624 609.478 716.66 611.394C715.702 613.368 713.223 615.743 710.947 616.957C708.723 618.17 705.285 618.931 703.16 618.629C701.14 618.327 699.369 616.655 698.155 615.035C696.739 612.915 693.504 608.415 694.061 606.238ZM784.369 595.368C785.629 595.316 787.702 598.603 787.905 600.78C788.16 603.457 786.895 610.285 785.733 611.447C784.567 612.66 781.785 609.629 780.879 607.91C779.968 606.191 779.614 603.254 780.171 601.134C780.775 599.108 783.051 595.42 784.369 595.368ZM591.364 441.249C607.192 451.514 625.494 461.879 633.785 470.17C640.869 477.249 639.806 489.337 643.801 498.54C649.916 512.598 664.176 540.759 670.499 554.665C674.593 563.665 679.952 574.436 681.619 582.17C682.936 588.342 682.176 596.988 680.509 601.082C679.192 604.316 674.999 605.681 671.608 606.644C668.171 607.603 663.166 609.071 659.931 606.894C653.864 602.9 642.28 591.78 635.202 582.728C625.598 570.441 612.853 549.457 602.39 533.228C592.223 517.452 581.301 499.499 572.655 485.441C565.171 473.259 556.676 460.92 550.405 448.733C549.192 446.405 547.978 443.827 546.765 441.197L591.364 441.249ZM314.577 595.165C313.973 592.941 309.473 592.181 306.942 590.566C304.311 588.894 300.978 585.306 298.749 585.155C296.525 585.004 294.603 588.29 293.494 589.754C292.582 590.92 292.025 592.436 291.822 593.9C291.572 595.67 291.015 598.4 291.973 600.275C292.936 602.243 295.416 604.624 297.692 605.837C299.916 607.051 303.353 607.806 305.478 607.504C307.499 607.202 309.27 605.53 310.483 603.863C311.947 601.842 315.134 597.389 314.577 595.165ZM762.322 600.577C762.676 603.103 757.869 604.519 755.088 605.28C752.155 606.139 747.353 606.342 744.827 605.53C742.551 604.822 740.577 602.749 739.822 600.525C738.91 597.697 737.088 590.311 739.265 588.592C741.436 586.874 749.02 588.29 752.864 590.259C756.707 592.285 761.916 598.098 762.322 600.577ZM458.582 441.249C458.28 441.905 457.926 442.566 457.624 443.17C451.353 455.358 442.91 467.696 435.374 479.879C426.728 493.988 415.754 511.889 405.645 527.712C395.228 543.946 382.436 564.931 372.827 577.217C365.749 586.316 354.171 597.389 348.103 601.384C344.864 603.509 339.858 602.092 336.421 601.134C333.082 600.17 328.838 598.806 327.52 595.571C325.853 591.473 325.093 582.827 326.41 576.66C328.077 568.926 333.436 558.155 337.535 549.155C343.853 535.197 358.114 507.082 364.233 493.025C368.228 483.827 367.166 471.738 374.244 464.66C381.02 457.884 394.52 449.691 407.869 441.353H458.582V441.249ZM224.27 584.295C223.004 584.243 220.931 587.53 220.733 589.707C220.478 592.384 221.744 599.212 222.905 600.374C224.067 601.587 226.848 598.556 227.759 596.884C228.671 595.165 229.025 592.233 228.468 590.108C227.91 587.988 225.588 584.348 224.27 584.295ZM270.436 580.4C270.739 580.504 271.093 580.655 271.395 580.754C277.108 582.879 284.744 584.092 291.421 583.233C298.551 582.322 308.155 580.504 314.223 575.191C321.202 569.025 327.369 556.129 333.39 546.269C339.504 536.311 345.874 525.54 350.884 515.426C355.686 505.769 361.197 493.634 363.676 485.697C365.447 479.983 368.379 469.363 365.598 467.894C362.864 466.431 352.905 474.572 347.244 476.795C342.239 478.769 336.473 478.717 331.666 481.243C324.338 485.087 312.452 493.228 303.301 499.853C292.53 507.691 275.593 519.676 267.15 528.217C260.827 534.592 254.358 543.946 252.686 551.025C251.119 557.493 254.004 565.535 257.134 570.493C258.754 573.071 261.082 575.243 263.713 576.962C260.931 577.316 257.796 578.176 255.723 579.238C251.879 581.212 246.671 587.025 246.265 589.504C245.91 591.983 250.718 593.446 253.494 594.207C256.431 595.066 261.233 595.269 263.759 594.509C265.983 593.801 268.009 591.728 268.765 589.504C269.525 587.53 270.588 583.332 270.436 580.4ZM642.431 473.457C639.702 474.926 642.588 485.545 644.353 491.259C646.832 499.197 652.296 511.332 657.15 520.988C662.202 531.103 668.525 541.874 674.645 551.832C680.713 561.691 686.827 574.587 693.806 580.754C699.874 586.066 709.483 587.884 716.608 588.795C723.285 589.655 730.921 588.441 736.634 586.316C742.093 584.295 747.707 581.009 750.791 576.051C753.874 571.098 756.759 563.056 755.244 556.587C753.572 549.556 747.103 540.202 740.78 533.78C732.338 525.238 715.395 513.254 704.629 505.415C695.473 498.738 683.593 490.65 676.259 486.806C671.509 484.28 665.692 484.332 660.686 482.358C655.124 480.134 645.166 471.993 642.431 473.457ZM808.739 578.478C810.103 578.124 813.035 578.936 814.353 579.894C815.614 580.806 816.728 582.577 816.426 583.993C816.119 585.405 813.796 588.139 812.53 588.441C811.265 588.691 809.952 586.775 808.89 585.712C807.775 584.65 806.009 583.332 806.009 582.17C806.009 580.957 807.374 578.884 808.739 578.478ZM199.9 567.457C198.483 567.103 195.551 567.962 194.285 568.874C193.02 569.785 191.91 571.551 192.213 572.967C192.515 574.384 194.843 577.113 196.108 577.42C197.369 577.723 198.686 575.749 199.749 574.686C200.806 573.624 202.629 572.311 202.629 571.098C202.629 569.884 201.265 567.811 199.9 567.457ZM800.296 566.853C801.155 569.228 796.702 571.603 794.124 572.915C791.447 574.332 786.744 575.499 784.114 575.243C781.785 574.993 779.358 573.374 778.197 571.353C776.733 568.769 773.447 561.842 775.265 559.769C777.035 557.65 784.77 557.493 788.968 558.707C793.166 559.821 799.436 564.473 800.296 566.853ZM208.343 555.775C207.483 558.155 211.931 560.53 214.463 561.842C217.14 563.259 221.843 564.426 224.473 564.17C226.848 563.915 229.228 562.301 230.39 560.275C231.853 557.696 235.093 550.769 233.322 548.696C231.551 546.571 223.817 546.42 219.619 547.634C215.473 548.749 209.202 553.4 208.343 555.775ZM834.931 548.394C836.197 548.598 839.129 550.822 839.129 552.842C839.129 555.019 836.296 560.478 835.082 561.29C833.869 562.098 832.452 559.264 831.895 557.801C831.291 556.181 830.937 553.15 831.442 551.582C831.895 550.113 833.614 548.191 834.931 548.394ZM539.181 441.249C541.509 445.65 545.551 448.936 548.082 453.181C551.166 458.389 555.259 466.53 557.791 472.65C560.114 478.212 562.291 483.926 563.353 489.894C564.463 496.212 564.108 503.795 564.463 510.723C564.817 517.905 564.77 525.946 565.577 532.973C566.384 539.749 571.239 555.321 569.468 552.993C567.702 550.67 559.759 528.827 555.009 519.066C550.916 510.624 545.098 503.087 541.103 494.592C536.655 485.087 531.952 473.155 528.311 462.082C526.239 455.66 523.759 448.28 521.791 441.249H539.181ZM685.259 489.03C685.666 486.759 704.78 487.264 714.436 488.17C725.207 489.233 738.858 492.42 750.035 495.405C760.702 498.233 773.343 500.915 781.431 505.973C788.869 510.571 796.754 519.723 798.676 525.691C800.395 531.15 795.39 537.571 792.864 541.821C790.588 545.561 787.702 550.165 783.405 550.973C779.004 551.832 771.525 549.66 766.468 546.827C761.108 543.795 756.457 537.269 751.197 532.92C745.936 528.572 740.124 524.931 734.811 520.686C728.291 515.478 720.249 507.082 712.009 501.775C703.666 496.566 684.806 491.306 685.259 489.03ZM173.759 537.321C172.494 537.525 169.561 539.749 169.561 541.769C169.561 543.894 172.442 549.405 173.655 550.264C174.869 551.077 176.285 548.243 176.843 546.775C177.447 545.16 177.754 542.124 177.244 540.556C176.739 539.04 175.02 537.118 173.759 537.321ZM508.088 548.394C510.916 547.785 513.093 545.462 513.093 542.681C512.942 542.78 512.739 542.884 512.535 543.035V542.832C511.728 543.337 510.713 543.795 509.551 544.144C508.64 544.348 507.681 544.452 506.718 544.452C504.192 544.452 501.817 543.639 500.348 542.681C500.348 542.832 500.348 542.983 500.348 543.134C500.145 543.035 499.947 542.931 499.744 542.78C499.744 546.019 502.624 548.65 506.166 548.65C506.77 548.696 507.426 548.545 508.088 548.394ZM484.624 441.249C483.056 446.509 481.285 451.764 479.718 456.519C476.077 467.592 471.374 479.525 466.926 489.03C462.931 497.525 457.119 505.061 453.02 513.504C448.317 523.212 440.332 545.108 438.561 547.436C436.791 549.759 441.645 534.186 442.452 527.41C443.265 520.384 443.213 512.342 443.567 505.16C443.921 498.186 443.567 490.65 444.676 484.332C445.739 478.363 447.916 472.65 450.239 467.087C452.817 460.967 456.864 452.879 459.947 447.618C461.311 445.348 463.134 443.322 464.853 441.249H484.624ZM815.16 531.707C816.728 531.707 818.348 531.811 819.306 532.316C820.619 532.973 821.785 534.488 821.832 535.957C821.884 537.676 821.228 540.91 819.608 542.629C817.942 544.348 814.707 546.17 811.973 546.223H811.874C809.093 546.223 805.098 544.754 803.124 542.884C801.103 540.962 799.332 536.561 799.942 534.842C800.494 533.124 804.39 533.124 806.614 532.618C808.739 532.113 811.015 531.811 813.14 531.759C813.744 531.759 814.452 531.707 815.108 531.707H815.16ZM322.822 483.473C322.416 481.196 303.301 481.702 293.645 482.613C282.874 483.67 269.223 486.858 258.046 489.842C247.379 492.67 234.739 495.353 226.645 500.41C219.213 505.009 211.327 514.16 209.405 520.129C207.686 525.592 212.692 532.014 215.218 536.259C217.494 539.999 220.379 544.603 224.676 545.41C229.072 546.269 236.556 544.098 241.614 541.264C246.973 538.233 251.624 531.707 256.884 527.358C262.145 523.009 267.957 519.368 273.265 515.124C279.791 509.915 287.827 501.519 296.072 496.212C304.364 490.952 323.223 485.743 322.822 483.473ZM506.166 535.754C510.561 535.754 514.155 536.462 514.155 537.374C514.155 538.28 510.561 538.988 506.166 538.988C501.765 538.988 498.176 538.28 498.176 537.374C498.176 536.462 501.765 535.754 506.166 535.754ZM193.681 520.634C194.338 520.634 194.942 520.634 195.551 520.686C197.676 520.738 199.947 521.04 202.072 521.545C204.249 522.051 208.14 522.051 208.749 523.769C209.301 525.488 207.582 529.936 205.561 531.811C203.588 533.681 199.593 535.144 196.817 535.144H196.66C193.879 535.098 190.645 533.228 189.025 531.556C187.41 529.837 186.754 526.603 186.801 524.884C186.853 523.415 187.968 521.9 189.28 521.29C190.291 520.785 191.963 520.686 193.577 520.686L193.681 520.634ZM498.025 527.259C498.025 524.025 501.41 521.394 505.608 521.394C509.806 521.394 513.192 524.025 513.192 527.259C511.421 526.295 508.64 525.488 505.608 525.488C502.572 525.488 499.791 526.295 498.025 527.259ZM497.921 519.827C497.921 517.098 501.916 514.868 506.822 514.868C511.728 514.868 515.723 517.098 515.723 519.827C513.65 519.014 510.358 518.358 506.822 518.358C503.233 518.358 499.994 519.014 497.921 519.827ZM814.301 505.467C814.905 503.243 819.457 502.483 821.936 500.863C824.567 499.196 827.9 495.608 830.129 495.452C832.353 495.301 834.275 498.587 835.384 500.056C836.296 501.217 836.853 502.733 837.056 504.202C837.306 505.973 837.864 508.702 836.9 510.624C835.942 512.598 833.463 514.973 831.186 516.186C828.963 517.4 825.525 518.155 823.4 517.853C821.379 517.551 819.608 515.884 818.395 514.212C816.931 512.139 813.692 507.691 814.301 505.467ZM849.895 502.535C850.504 502.535 851.009 502.634 851.311 502.785C852.426 503.394 852.171 505.717 852.275 507.233C852.426 508.754 852.879 510.926 852.124 511.837C851.567 512.493 850.15 513.051 848.936 513.051C848.483 513.051 848.025 512.999 847.723 512.795C846.41 512.191 844.739 509.613 844.384 508.045C844.03 506.577 844.338 504.457 845.499 503.592C846.306 502.988 848.332 502.535 849.848 502.535H849.895ZM194.338 494.394C193.728 492.165 189.228 491.41 186.702 489.79C184.072 488.124 180.733 484.53 178.509 484.379C176.285 484.228 174.416 487.514 173.249 488.983C172.343 490.144 171.785 491.66 171.582 493.129C171.332 494.9 170.775 497.629 171.733 499.499C172.697 501.473 175.171 503.848 177.447 505.061C179.671 506.275 183.114 507.035 185.233 506.728C187.259 506.426 189.025 504.759 190.239 503.087C191.707 501.066 194.942 496.618 194.338 494.394ZM158.843 491.457C160.358 491.457 162.332 491.915 163.14 492.519C164.301 493.379 164.603 495.504 164.249 496.973C163.895 498.488 162.228 501.066 160.916 501.676C160.561 501.827 160.155 501.926 159.702 501.926C158.489 501.926 157.02 501.368 156.463 500.712C155.707 499.801 156.213 497.629 156.311 496.113C156.463 494.592 156.16 492.269 157.275 491.66C157.577 491.509 158.134 491.41 158.739 491.41C158.791 491.457 158.843 491.457 158.843 491.457ZM790.588 441.249C796.046 444.134 801.155 447.775 805.046 451.259C810.556 456.165 815.364 463.853 817.535 469.618C819.457 474.624 819.759 480.941 818.093 485.743C816.426 490.551 812.681 496.566 807.525 498.54C801.509 500.863 790.28 501.368 781.942 499.65C771.374 497.478 754.129 490.65 744.119 485.493C735.926 481.243 727.686 474.165 722.171 468.556C717.473 463.702 714.437 457.025 711.051 451.613C709.025 448.327 706.348 444.686 704.374 441.301L790.588 441.249ZM300.067 441.249C299.004 442.868 297.942 444.436 296.983 445.952C293.593 451.363 290.561 458.087 285.858 462.889C280.348 468.556 272.103 475.582 263.91 479.832C253.952 485.04 236.66 491.811 226.093 493.988C217.749 495.707 206.525 495.202 200.504 492.874C195.348 490.905 191.608 484.884 189.936 480.082C188.27 475.28 188.572 469.009 190.494 463.952C192.666 458.186 197.473 450.551 202.983 445.598C204.65 444.134 206.473 442.613 208.494 441.15L300.067 441.249ZM699.468 441.249C702.051 447.264 704.728 453.384 707.765 459.045C712.061 467.035 722.478 478.009 722.223 482.103C721.973 486.254 711.452 484.379 706.093 483.775C698.457 482.863 685.968 480.134 676.364 476.795C665.645 473.155 653.051 467.441 641.879 461.78C630.957 456.217 616.494 448.681 604.259 441.197H699.468V441.249ZM394.317 441.249C384.556 446.811 374.395 452.072 366.155 456.217C354.978 461.879 342.39 467.592 331.666 471.233C322.009 474.519 309.572 477.301 301.936 478.16C296.577 478.769 286.108 480.639 285.806 476.493C285.556 472.394 295.968 461.426 300.27 453.436C302.343 449.54 304.265 445.394 306.134 441.249H394.317ZM858.442 465.269C858.494 465.269 858.546 465.269 858.593 465.269C860.061 465.42 859.301 468.504 858.744 470.019C858.14 471.639 856.421 474.165 855.004 475.025C854.244 475.483 853.134 475.785 852.171 475.785H852.124C851.364 475.785 850.655 475.582 850.301 475.176C849.494 474.165 848.681 470.629 850.051 469.061C851.312 467.441 856.723 465.269 858.442 465.269ZM827.9 473.306C826.181 473.155 824.009 472.045 823.551 470.275C823.098 468.452 823.754 464.764 825.072 462.587C826.489 460.259 829.52 457.379 831.999 456.269C834.473 455.207 837.812 455.207 840.035 456.066C842.265 456.926 844.692 459.353 845.447 461.426C846.254 463.499 845.853 466.681 844.791 468.405C843.676 470.17 841.098 471.285 838.926 471.889C836.145 472.702 830.478 473.561 827.9 473.306ZM150.244 454.191C151.963 454.191 157.322 456.368 158.692 457.936C160.004 459.504 159.244 463.04 158.436 464.056C158.082 464.457 157.374 464.66 156.614 464.66H156.567C155.556 464.66 154.442 464.358 153.681 463.9C152.27 463.04 150.546 460.514 149.942 458.894C149.384 457.431 148.629 454.348 150.093 454.191H150.244ZM180.733 462.233C182.452 462.03 184.629 460.967 185.082 459.202C185.541 457.431 184.879 453.686 183.567 451.514C182.15 449.186 179.119 446.306 176.64 445.243C174.16 444.181 170.822 444.181 168.598 444.993C166.374 445.853 163.947 448.28 163.192 450.353C162.379 452.426 162.733 455.608 163.848 457.327C164.91 459.098 167.535 460.212 169.713 460.816C172.494 461.629 178.207 462.488 180.733 462.233ZM847.119 441.249C846.41 442.259 845.551 443.17 844.64 443.78C843.223 444.686 840.442 445.697 838.775 445.697H838.723C838.27 445.697 837.916 445.598 837.66 445.447C836.952 444.889 837.004 442.967 837.509 441.249H847.119ZM821.431 441.249C818.65 441.707 815.567 442.061 813.291 442.061H813.239C812.681 442.061 812.228 442.061 811.77 442.009C810.91 441.905 809.952 441.655 809.093 441.249H821.431ZM94.8271 229.389C93.6656 226.858 92.7021 224.228 92.249 221.499C90.5771 211.79 96.4938 196.821 91.3896 186.207C81.3792 165.223 42.5927 126.134 32.025 95.4413C21.9156 65.9621 -0.891659 11.1548 28.1344 2.05066C57.1552 -7.00143 151.004 15.3475 206.015 40.9882C263.254 67.5819 323.728 116.931 371.463 161.884C389.207 178.572 410.952 204.155 431.129 229.389H472.489C441.494 175.181 406.249 127.603 361.551 89.1236C358.619 92.259 350.681 90.9413 343.249 85.9361C335.463 80.7277 331.16 73.3996 333.692 69.6548C336.218 65.9152 344.561 67.1288 352.348 72.3371C359.072 76.8371 363.171 82.9048 362.561 86.8475C407.463 127.045 444.072 175.285 475.874 229.337H534.176L532.556 232.217C566.181 172.603 605.067 119.665 653.759 76.0767C653.155 72.0819 657.249 66.0663 663.973 61.5663C671.759 56.358 680.155 55.1444 682.634 58.884C685.16 62.6288 680.864 69.91 673.077 75.1652C665.645 80.1236 657.702 81.4882 654.77 78.3527C606.379 120.019 569.067 172.353 536.249 232.217L537.817 229.337H581.353C600.213 205.926 620.134 182.868 636.52 167.394C684.249 122.446 744.676 73.0923 801.91 46.4986C856.926 20.8632 950.822 -1.4858 979.796 7.56107C1008.82 16.6652 986.015 71.4777 975.9 100.957C965.332 131.644 926.603 170.681 916.541 191.717C911.483 202.337 917.4 217.301 915.681 227.009C915.53 227.769 915.379 228.577 915.176 229.337H993.952C995.572 229.337 996.838 230.603 996.838 232.217C996.838 233.837 995.572 235.103 993.952 235.103H30.7125C29.0927 235.103 27.8323 233.837 27.8323 232.217C27.8323 230.603 29.1448 229.389 30.7125 229.389H94.8271ZM306.436 229.389H183.114C184.728 226.051 186.952 222.967 189.785 220.79C193.629 217.806 199.645 216.545 204.801 215.228C210.317 213.863 216.739 213.306 222.702 212.446C230.035 211.384 240.551 209.868 248.692 208.957C256.275 208.098 264.926 206.025 271.499 206.884C277.515 207.644 283.025 210.879 288.181 213.967C293.39 217.098 298.348 221.598 302.645 225.644C303.91 226.806 305.171 228.071 306.436 229.389ZM409.332 229.389H313.364C310.989 226.202 308.509 223.066 306.134 220.639C300.723 215.181 293.895 211.337 287.525 207.035C281.004 202.639 271.145 199.051 266.947 194.243C263.358 190.098 264.265 183.577 262.499 178.42C260.624 172.957 258.702 166.587 255.822 161.478C252.989 156.374 248.338 151.67 245.254 147.577C242.577 144.035 232.817 137.816 237.213 137.009C244.801 135.592 277.614 137.108 290.864 138.926C299.916 140.191 308.614 143.884 316.702 148.082C327.166 153.54 342.895 162.999 353.666 171.691C364.03 180.035 372.223 190.754 381.473 200.311C390.525 209.769 400.181 219.525 409.332 229.389ZM699.067 229.389H604.004C611.541 221.446 619.275 213.561 626.608 205.926C635.858 196.368 644.051 185.65 654.416 177.306C665.239 168.608 680.91 159.155 691.379 153.691C699.468 149.446 708.166 145.806 717.218 144.54C730.468 142.67 763.28 141.155 770.864 142.566C775.213 143.379 765.504 149.598 762.827 153.134C759.744 157.233 755.088 161.936 752.259 167.04C749.374 172.202 747.457 178.519 745.582 183.983C743.817 189.186 744.723 195.712 741.134 199.806C736.936 204.561 727.077 208.202 720.556 212.598C714.181 216.9 707.306 220.738 701.947 226.202C700.989 227.16 700.025 228.223 699.067 229.389ZM821.379 229.389H707.41C711.202 225.9 715.447 222.207 719.848 219.577C725.004 216.441 730.515 213.259 736.535 212.499C743.108 211.691 751.754 213.712 759.338 214.571C767.478 215.483 777.994 216.999 785.327 218.061C791.296 218.92 797.765 219.426 803.228 220.842C808.384 222.155 814.353 223.42 818.244 226.405C819.405 227.264 820.421 228.275 821.379 229.389ZM855.509 214.269C856.119 212.551 859.957 212.551 862.186 212.045C864.306 211.54 866.582 211.233 868.707 211.186C870.78 211.134 873.509 211.03 874.978 211.738C876.291 212.348 877.452 213.863 877.504 215.379C877.556 217.098 876.9 220.337 875.28 222.056C873.614 223.775 870.374 225.644 867.645 225.644C864.864 225.696 860.77 224.228 858.744 222.306C856.671 220.436 854.905 215.988 855.509 214.269ZM896.921 221.499C895.608 220.894 893.937 218.311 893.582 216.743C893.228 215.28 893.535 213.155 894.697 212.295C895.858 211.436 899.4 210.879 900.509 211.436C901.624 212.045 901.369 214.368 901.473 215.884C901.624 217.405 902.077 219.525 901.322 220.488C900.614 221.446 898.239 222.155 896.921 221.499ZM153.129 203.243C152.572 201.525 148.676 201.525 146.452 201.019C144.327 200.514 142.051 200.212 139.931 200.212C137.858 200.16 135.124 200.061 133.66 200.769C132.348 201.374 131.181 202.889 131.181 204.358C131.134 206.077 131.791 209.363 133.405 211.03C135.077 212.754 138.311 214.624 141.041 214.67C143.822 214.723 147.921 213.259 149.942 211.337C151.963 209.363 153.733 204.915 153.129 203.243ZM746.395 199.556C745.838 196.926 749.728 191.665 750.843 188.176C751.853 185.04 751.957 181.655 753.067 178.571C754.535 174.473 756.608 168.051 759.744 163.551C762.879 159.051 766.77 154.249 771.827 151.723C777.39 148.941 786.239 147.827 792.963 147.019C799.285 146.259 807.577 146.764 812.124 146.868C814.806 146.915 817.994 146.009 820.166 147.577C823.754 150.051 830.733 156.019 833.666 161.733C836.598 167.499 837.608 176.092 837.713 182.009C837.759 187.217 836.801 192.827 834.119 197.28C831.343 201.879 826.535 207.191 821.077 209.665C814.806 212.446 803.379 213.41 796.603 213.967C791.244 214.42 785.629 213.915 780.473 213.004C775.416 212.092 770.16 210.071 765.759 208.556C761.817 207.191 757.317 205.473 754.077 203.952C751.4 202.738 746.947 202.186 746.395 199.556ZM111.718 210.426C113.03 209.816 114.697 207.238 115.051 205.67C115.405 204.207 115.103 202.082 113.942 201.223C112.775 200.363 109.239 199.806 108.124 200.415C106.963 201.019 107.265 203.348 107.166 204.863C107.015 206.379 106.556 208.504 107.317 209.462C108.077 210.374 110.452 211.082 111.718 210.426ZM261.64 193.941C262.192 191.311 258.301 186.056 257.186 182.566C256.176 179.431 256.077 176.04 254.963 172.957C253.499 168.863 251.421 162.389 248.291 157.941C245.155 153.488 241.259 148.634 236.202 146.108C230.64 143.327 221.791 142.217 215.067 141.405C208.749 140.65 200.457 141.155 195.905 141.254C193.223 141.306 190.041 140.394 187.864 141.962C184.275 144.441 177.296 150.405 174.364 156.118C171.431 161.884 170.421 170.478 170.317 176.394C170.27 181.603 171.228 187.217 173.957 191.665C176.739 196.269 181.546 201.629 187.004 204.056C193.275 206.837 204.702 207.795 211.478 208.353C216.838 208.806 222.452 208.301 227.608 207.389C232.666 206.483 237.921 204.457 242.322 202.941C246.265 201.577 250.765 199.858 254.004 198.342C256.681 197.176 261.129 196.624 261.64 193.941ZM870.629 193.842C868.202 193.639 864.41 193.436 862.285 192.019C860.16 190.603 858.546 188.025 857.989 185.499C857.332 182.613 857.431 178.217 858.39 174.78C859.405 171.238 862.03 166.837 864.103 164.363C865.775 162.337 867.999 159.811 870.629 159.91C873.614 160.014 879.176 162.999 881.905 164.92C884.077 166.483 885.9 168.863 886.759 171.441C887.77 174.577 888.629 180.592 888.02 183.676C887.468 186.306 884.733 188.379 882.864 189.946C881.093 191.415 878.77 192.525 876.749 193.134C874.827 193.79 872.702 193.993 870.629 193.842ZM138.009 182.769C140.436 182.566 144.228 182.363 146.353 180.946C148.473 179.582 150.093 176.952 150.65 174.426C151.306 171.54 151.207 167.144 150.244 163.707C149.233 160.165 146.603 155.764 144.53 153.29C142.864 151.264 140.64 148.738 138.009 148.837C135.025 148.941 129.41 151.92 126.733 153.842C124.509 155.41 122.739 157.79 121.879 160.368C120.869 163.504 119.957 169.519 120.614 172.603C121.171 175.233 123.9 177.254 125.77 178.874C127.541 180.342 129.869 181.4 131.89 182.061C133.864 182.717 135.936 182.967 138.009 182.769ZM902.181 180.644C899.853 179.936 896.114 177.608 895.655 175.889C895.202 174.223 897.832 171.29 899.551 170.478C901.218 169.618 904.051 170.228 905.822 170.884C907.593 171.54 909.666 172.957 910.27 174.473C910.879 175.993 910.926 179.025 909.561 180.035C908.197 181.098 904.504 181.353 902.181 180.644ZM106.457 169.572C108.78 168.863 112.525 166.535 112.978 164.816C113.436 163.15 110.754 160.217 109.088 159.405C107.416 158.545 104.634 159.155 102.817 159.811C101.046 160.467 98.9729 161.884 98.3688 163.4C97.7594 164.92 97.7073 167.952 99.0719 168.962C100.442 170.025 104.129 170.28 106.457 169.572ZM924.426 166.639C922.759 166.233 920.384 164.009 919.978 162.186C919.572 160.368 920.588 157.332 921.9 155.665C923.265 153.999 926.249 152.582 928.02 152.176C929.535 151.821 931.66 152.176 932.468 153.29C933.275 154.4 933.275 157.03 932.874 158.853C932.468 160.723 931.353 163.249 929.942 164.566C928.577 165.827 926.098 166.993 924.426 166.639ZM84.2073 155.561C85.8792 155.16 88.2542 152.936 88.6604 151.113C89.0615 149.295 88.0511 146.259 86.7386 144.592C85.374 142.92 82.3896 141.509 80.6188 141.103C79.1031 140.749 76.9781 141.103 76.1708 142.217C75.3583 143.327 75.3583 145.957 75.7646 147.775C76.1708 149.65 77.2802 152.176 78.6969 153.488C80.0615 154.754 82.5406 155.915 84.2073 155.561ZM900.817 152.582C899.4 151.92 896.973 149.191 896.671 147.17C896.364 145.15 897.884 141.91 899.046 140.342C900.108 138.926 902.077 137.41 903.645 137.712C905.213 137.967 907.895 140.243 908.499 142.014C909.108 143.78 907.791 146.764 907.239 148.28C906.832 149.394 906.124 150.509 905.166 151.217C904.051 151.92 902.181 153.238 900.817 152.582ZM849.546 131.598C847.874 128.004 847.926 122.598 849.796 119.665C851.718 116.681 856.827 114.707 860.921 113.795C865.723 112.785 873.509 112.988 878.718 113.545C883.322 114.051 888.681 115.769 892.067 117.186C894.645 118.249 897.884 119.665 898.994 121.889C900.108 124.165 900.056 128.056 898.843 130.785C897.379 134.071 893.785 138.926 890.098 141.759C886.353 144.644 881.046 147.473 876.343 148.03C871.64 148.587 865.978 147.728 861.728 145.098C857.28 142.316 851.515 135.842 849.546 131.598ZM107.822 141.509C109.239 140.848 111.718 138.118 111.968 136.098C112.27 134.071 110.754 130.837 109.593 129.269C108.53 127.853 106.556 126.337 104.989 126.639C103.421 126.946 100.744 129.217 100.134 130.941C99.5302 132.707 100.843 135.639 101.4 137.207C101.806 138.321 102.515 139.436 103.473 140.139C104.588 140.848 106.457 142.165 107.822 141.509ZM159.145 120.525C160.864 116.931 160.765 111.525 158.843 108.592C156.968 105.655 151.811 103.634 147.718 102.775C142.916 101.764 135.124 101.915 129.921 102.473C125.317 102.978 119.957 104.697 116.572 106.113C113.989 107.176 110.754 108.592 109.64 110.816C108.478 113.092 108.582 116.983 109.796 119.712C111.259 122.999 114.848 127.853 118.541 130.686C122.285 133.566 127.593 136.4 132.296 136.957C136.999 137.514 142.66 136.603 146.905 134.025C151.358 131.295 157.124 124.769 159.145 120.525ZM702.452 135.488L703.567 132.556C703.567 132.556 708.27 125.78 711.353 123.103C714.489 120.321 719.239 117.946 722.478 115.868C725.207 114.103 727.838 112.129 730.666 110.613C734.306 108.691 739.718 105.91 744.166 104.243C748.416 102.624 753.827 101.311 757.213 100.603C759.692 100.098 763.634 99.7902 764.749 100.045C765.457 100.196 764.14 101.462 763.634 102.014C762.067 103.535 758.327 106.973 755.442 109.249C751.957 111.978 747.202 115.67 742.801 118.4C737.796 121.587 730.213 125.681 725.306 128.259C721.416 130.332 716.457 132.66 713.374 133.973C711.202 134.884 708.27 135.795 706.702 136.197C705.843 136.4 704.728 136.452 704.072 136.348C703.463 136.196 702.452 135.488 702.452 135.488ZM918.311 123.405C918.463 121.129 920.588 118.452 922.759 117.035C924.983 115.519 928.827 114.353 931.811 114.405C934.796 114.457 938.588 115.618 940.556 117.337C942.53 119.004 943.947 121.988 943.593 124.566C943.239 127.144 940.66 131.446 938.436 132.91C936.259 134.379 933.124 133.821 930.494 133.467C927.713 133.113 923.77 132.353 921.749 130.686C919.775 128.967 918.16 125.681 918.311 123.405ZM775.874 128.665C775.114 126.691 778.499 123.15 780.879 121.431C783.858 119.311 789.624 116.931 793.822 115.874C797.765 114.858 802.369 114.707 806.056 115.009C809.447 115.316 813.494 116.629 815.921 117.79C817.791 118.702 821.28 120.321 820.619 121.936C820.015 123.608 815.259 126.238 812.124 127.655C808.082 129.42 800.9 131.749 796.4 132.66C792.759 133.415 788.713 133.769 785.275 133.061C781.89 132.457 776.577 130.634 775.874 128.665ZM305.577 129.879L304.463 126.946C304.463 126.946 299.765 120.17 296.676 117.488C293.541 114.707 288.791 112.384 285.556 110.259C282.822 108.488 280.192 106.514 277.364 104.999C273.723 103.03 268.311 100.295 263.864 98.5767C259.614 96.9621 254.202 95.6444 250.817 94.9882C248.338 94.483 244.395 94.1809 243.28 94.4309C242.577 94.5819 243.89 95.8475 244.395 96.4048C245.963 97.9205 249.702 101.358 252.588 103.634C256.077 106.363 260.827 110.004 265.228 112.785C270.233 115.973 277.817 120.066 282.723 122.644C286.614 124.717 291.572 127.045 294.655 128.358C296.827 129.269 299.765 130.181 301.332 130.587C302.192 130.785 303.301 130.837 303.957 130.738C304.619 130.634 305.577 129.879 305.577 129.879ZM90.3271 112.332C90.1761 110.056 88.0511 107.379 85.8792 105.962C83.65 104.441 79.8115 103.28 76.8271 103.332C73.8427 103.384 70.0511 104.545 68.0771 106.264C66.1083 107.983 64.6917 110.915 65.0458 113.493C65.4 116.071 68.0302 120.374 70.2021 121.837C72.3792 123.306 75.5094 122.749 78.1396 122.394C80.9208 122.04 84.8636 121.28 86.8896 119.613C88.9104 117.894 90.4781 114.608 90.3271 112.332ZM232.765 117.592C233.525 115.67 230.134 112.077 227.759 110.358C224.775 108.238 219.009 105.858 214.817 104.795C210.869 103.785 206.27 103.634 202.577 103.936C199.192 104.243 195.145 105.556 192.718 106.717C190.796 107.629 187.358 109.249 188.015 110.915C188.624 112.582 193.374 115.212 196.509 116.629C200.556 118.4 207.739 120.723 212.239 121.634C215.879 122.394 219.921 122.749 223.358 122.04C226.749 121.384 232.056 119.561 232.765 117.592ZM807.119 104.9C808.03 102.874 814.4 98.1757 818.801 96.2538C823.197 94.3319 828.963 93.6757 833.515 93.4725C837.713 93.3215 844.692 93.7225 846.004 95.1392C847.317 96.5559 843.374 100.045 841.556 102.066C839.634 104.191 837.41 106.769 834.629 107.931C831.442 109.196 825.978 109.806 822.39 109.853C819.306 109.957 815.765 109.295 813.186 108.488C811.015 107.78 806.213 106.92 807.119 104.9ZM946.374 107.53C945.311 105.608 944.905 100.4 946.374 98.2225C947.838 95.9986 952.692 94.733 955.27 94.3319C957.499 93.9778 960.634 94.535 961.796 95.8475C962.957 97.16 962.754 100.295 962.353 102.217C961.999 104.191 961.186 106.415 959.572 107.629C957.952 108.894 954.968 109.754 952.744 109.702C950.572 109.754 947.436 109.499 946.374 107.53ZM853.285 89.0715C851.921 87.7069 851.973 84.8267 853.03 83.3579C854.046 81.9413 857.129 80.8788 859.405 80.4257C862.338 79.8215 866.838 79.8684 870.525 79.8684C874.723 79.8215 880.64 80.1236 884.686 80.2746C888.124 80.3736 891.713 80.3736 894.999 80.6809C898.134 81.035 901.27 81.5402 904.306 82.3475C907.436 83.1548 911.483 84.1653 913.91 85.535C915.931 86.6965 917.905 88.7694 918.765 90.5402C919.572 92.259 919.572 94.634 919.02 96.2538C918.463 97.8684 917.145 99.4882 915.53 100.144C913.15 101.108 908.452 101.816 904.811 101.967C900.463 102.17 893.989 101.764 889.541 101.41C885.645 101.108 881.702 100.754 877.858 99.9934C874.067 99.233 870.171 98.5298 866.582 96.9621C862.541 95.1392 855.562 91.3475 853.285 89.0715ZM201.515 93.8267C200.608 91.8007 194.233 87.0975 189.838 85.2277C185.436 83.3059 179.671 82.6496 175.124 82.4465C170.926 82.2955 163.947 82.7017 162.634 84.1184C161.27 85.535 165.265 89.0194 167.082 91.0923C169.004 93.2173 171.228 95.7955 174.009 96.91C177.197 98.2225 182.655 98.7798 186.249 98.884C189.332 98.983 192.869 98.3267 195.4 97.5142C197.624 96.7069 202.426 95.8996 201.515 93.8267ZM62.2646 96.5038C63.3271 94.5819 63.7281 89.3736 62.2646 87.2017C60.7958 85.0246 55.9417 83.7121 53.3635 83.3059C51.1396 82.9517 48.0042 83.509 46.8427 84.8267C45.6813 86.1392 45.9313 89.2746 46.2854 91.2486C46.6396 93.2173 47.4469 95.3944 49.0667 96.6548C50.6865 97.9205 53.6656 98.7798 55.8948 98.7277C58.0667 98.6809 61.2021 98.3736 62.2646 96.5038ZM803.379 92.509C801.759 89.2746 806.41 76.5298 811.015 71.6757C815.666 66.8215 827.546 62.0715 831.14 63.3371C834.728 64.5975 834.275 74.7121 832.556 79.3111C830.832 83.9673 825.624 88.9205 820.723 91.1444C815.869 93.3684 804.999 95.7955 803.379 92.509ZM155.353 77.9986C156.718 76.6861 156.666 73.7538 155.603 72.285C154.593 70.8684 151.509 69.8059 149.233 69.3527C146.301 68.7434 141.801 68.7954 138.108 68.7954C133.91 68.7954 127.999 69.0975 123.952 69.2017C120.515 69.3007 116.921 69.2486 113.634 69.6027C110.504 69.9569 107.369 70.5142 104.332 71.2746C101.197 72.0819 97.1552 73.0923 94.7281 74.4569C92.7021 75.6236 90.7333 77.6965 89.874 79.4673C89.0615 81.1861 89.0615 83.5611 89.6188 85.1809C90.124 86.7955 91.4886 88.4152 93.1083 89.0715C95.4833 90.035 100.186 90.6913 103.827 90.8944C108.176 91.0923 114.598 90.6392 119.098 90.3371C122.989 90.035 126.936 89.6809 130.78 88.9725C134.619 88.2642 138.463 87.5038 142.051 85.9361C146.15 84.0663 153.129 80.2746 155.353 77.9986ZM764.9 88.7694C765.759 86.8996 769.249 81.1861 772.535 78.4517C775.973 75.6704 782.192 73.1444 785.582 71.9309C787.905 71.1236 792.155 70.3111 792.963 71.2225C793.77 72.134 791.697 75.6705 790.332 77.4934C788.869 79.4673 786.39 81.4882 784.061 83.0559C781.332 84.9777 776.577 87.759 773.801 88.8684C771.775 89.6809 768.744 89.7277 767.275 89.7277C766.416 89.7277 764.546 89.5767 764.9 88.7694ZM926.249 78.759C927.614 76.3788 934.186 71.2746 938.89 70.2642C943.593 69.2486 951.629 70.9725 954.463 72.7902C956.791 74.259 956.791 78.5038 955.728 80.9829C954.666 83.4621 950.822 86.4413 947.942 87.6548C945.056 88.8684 941.369 88.8215 938.483 88.3632C935.655 87.858 932.723 86.3423 930.697 84.7225C928.728 83.2069 925.035 80.9309 926.249 78.759ZM243.181 83.2069C242.322 81.3371 238.832 75.6236 235.546 72.9413C232.108 70.16 225.89 67.634 222.499 66.4204C220.176 65.6079 215.926 64.8007 215.119 65.7121C214.311 66.6236 216.384 70.16 217.749 71.9829C219.213 73.9517 221.692 75.9777 224.02 77.5454C226.749 79.4152 231.499 82.2486 234.28 83.3579C236.306 84.1652 239.338 84.2173 240.806 84.2173C241.666 84.1652 243.535 83.9673 243.181 83.2069ZM197.723 60.7069C201.009 62.0715 203.692 62.3215 204.4 61.16C205.358 59.5923 202.223 56.0038 197.473 53.1704C192.718 50.3423 188.067 49.2798 187.108 50.8475C186.598 51.7069 187.306 53.2225 188.926 54.8892C184.327 52.7694 179.52 51.5559 177.499 52.2642C173.91 53.5246 174.364 63.6392 176.134 68.2382C177.853 72.8892 183.061 77.8475 187.916 80.0715C192.77 82.2486 203.692 84.7225 205.311 81.4361C206.874 78.2538 202.327 65.66 197.723 60.7069ZM82.3896 67.7329C81.025 65.3059 74.4521 60.2486 69.749 59.2382C65.0458 58.2277 57.0042 59.9465 54.176 61.7694C51.8479 63.233 51.8479 67.483 52.9104 69.9569C54.0198 72.4361 57.8167 75.4205 60.6969 76.634C63.5771 77.8475 67.2698 77.7954 70.15 77.3423C72.9833 76.884 75.9156 75.3163 77.9365 73.7538C79.9104 72.1861 83.65 69.8579 82.3896 67.7329ZM863.702 60.7069C862.942 59.1913 863.4 57.0663 864.41 55.7017C865.369 54.3371 867.744 53.2746 869.567 52.5142C871.384 51.7069 873.306 51.2486 875.28 50.9986C878.822 50.4934 886.202 49.8371 890.957 49.634C895.254 49.4309 900.16 49.3267 903.9 49.634C907.134 49.9361 910.624 50.7954 913.353 51.6027C915.681 52.2642 918.515 53.1704 920.181 54.2329C921.546 55.0923 922.66 56.509 923.213 57.9777C923.77 59.4413 923.921 61.4621 923.468 63.134C922.963 65.1548 922.306 68.7434 920.129 70.0611C917.145 71.8788 910.421 73.4465 905.671 74.1027C900.968 74.7642 895.963 74.509 891.509 73.9517C887.265 73.4465 882.562 71.9829 879.02 70.9204C875.989 70.009 872.702 69.1496 870.124 67.4309C867.546 65.7121 864.66 62.6757 863.702 60.7069ZM810.608 58.7329C815.364 55.8996 820.015 54.8423 820.973 56.41C821.937 57.9777 818.801 61.5663 814.046 64.4465C809.244 67.2798 804.645 68.3423 803.681 66.7746C802.723 65.2069 805.858 61.6184 810.608 58.7329ZM839.936 59.1913C839.733 60.8059 842.968 64.4465 844.942 65.5611C846.916 66.7225 849.848 66.7225 851.869 66.1184C853.942 65.509 856.624 63.535 857.28 61.9673C857.936 60.3527 856.775 57.6236 855.765 56.41C854.749 55.2434 852.78 54.9413 851.16 54.8892C849.546 54.8423 847.671 55.3944 846.004 56.0038C844.181 56.7121 840.14 57.5715 839.936 59.1913ZM963.921 62.2225C963.968 60.5559 967.056 54.285 968.926 53.0715C970.697 51.91 973.473 53.8788 975.041 54.7382C976.41 55.4986 978.28 56.9152 978.379 58.0767C978.483 59.1913 976.916 60.858 975.598 61.5663C973.983 62.4257 970.593 63.134 968.671 63.2329C967.004 63.3371 963.869 63.8423 963.921 62.2225ZM144.936 49.634C145.692 48.1132 145.186 45.9934 144.228 44.6288C143.265 43.259 140.89 42.2017 139.072 41.4413C137.249 40.634 135.327 40.1757 133.358 39.9257C129.765 39.4673 122.436 38.759 117.629 38.5611C113.332 38.358 108.426 38.2538 104.686 38.5611C101.499 38.8111 97.9625 39.7225 95.2333 40.4777C92.9052 41.1392 90.0719 42.0454 88.4052 43.1079C87.0406 43.9673 85.8792 45.384 85.3219 46.8527C84.7646 48.3163 84.6136 50.3423 85.0667 52.009C85.5719 54.0298 86.2333 57.6236 88.4052 58.9361C91.3896 60.7538 98.0615 62.3215 102.869 62.9829C107.567 63.6392 112.577 63.384 117.025 62.8319C121.27 62.3215 125.973 60.8579 129.515 59.7954C132.546 58.8371 135.832 58.0246 138.41 56.3059C141.093 54.6392 143.973 51.6027 144.936 49.634ZM168.702 48.1132C168.905 49.733 165.666 53.3215 163.697 54.535C161.723 55.7017 158.791 55.7017 156.77 55.0923C154.697 54.4882 152.015 52.5663 151.358 50.9465C150.702 49.3267 151.864 46.5454 152.874 45.384C153.884 44.2225 155.858 43.9205 157.478 43.8684C159.093 43.7694 160.963 44.3215 162.634 44.9829C164.452 45.6392 168.551 46.4986 168.702 48.1132ZM936.515 52.9204C932.874 52.0611 928.374 48.2694 927.614 45.6861C926.853 43.1079 929.332 38.9152 932.061 37.3475C934.843 35.7277 941.114 35.1705 944.301 35.9777C947.285 36.7382 950.369 39.6184 951.228 42.0975C952.088 44.5767 951.936 48.9725 949.556 50.6965C947.129 52.5142 940.202 53.7798 936.515 52.9204ZM44.7698 51.1496C44.7177 49.4829 41.5823 43.259 39.7646 41.9986C37.9938 40.8319 35.2125 42.8579 33.6448 43.6652C32.2281 44.4257 30.3583 45.8892 30.3063 47.0038C30.2073 48.1132 31.775 49.785 33.0875 50.4934C34.7073 51.3527 38.0927 52.0611 40.0667 52.16C41.6344 52.2642 44.7698 52.7694 44.7698 51.1496ZM72.124 41.8475C75.7646 40.9882 80.2646 37.1913 81.025 34.6132C81.7802 32.035 79.3063 27.8371 76.5719 26.2694C73.7906 24.6548 67.525 24.0975 64.3375 24.9048C61.3531 25.6652 58.2698 28.5455 57.4104 31.0246C56.499 33.5038 56.7021 37.8996 59.0771 39.6184C61.5042 41.4413 68.4833 42.7069 72.124 41.8475ZM899.296 34.009C897.681 32.8475 900.207 28.8007 901.676 26.9309C903.14 25.0559 905.822 23.6444 907.947 22.785C909.968 21.9725 912.291 21.8736 914.468 21.8215C916.895 21.7225 919.926 21.2642 922.405 22.2277C924.936 23.2382 930.041 26.1184 929.634 27.7902C929.233 29.4569 923.114 31.0767 920.03 32.0871C917.197 33.0455 914.265 33.6027 911.28 33.9048C907.791 34.2121 900.864 35.1705 899.296 34.009ZM964.171 31.1236C965.03 30.2173 969.634 28.0923 971.806 27.483C973.577 27.0298 975.801 27.0819 977.218 27.7902C978.634 28.4986 980.707 30.7694 980.249 31.6809C979.848 32.5402 976.608 32.8944 974.686 33.0455C972.416 33.3007 968.369 33.3527 966.65 33.0455C965.64 32.8475 963.463 31.884 964.171 31.1236ZM109.39 22.9361C111.009 21.7694 108.478 17.7277 107.015 15.858C105.598 13.983 102.916 12.5715 100.744 11.7069C98.7229 10.8996 96.3948 10.8007 94.2177 10.7486C91.7906 10.6496 88.7594 10.1913 86.2802 11.1548C83.7542 12.1652 78.6448 15.0455 79.0511 16.7173C79.4573 18.384 85.5719 20.0038 88.6604 21.0142C91.4886 21.9725 94.4208 22.5298 97.4052 22.8319C100.843 23.1392 107.77 24.1496 109.39 22.9361ZM44.4677 20.0507C43.6083 19.1444 39.0042 17.0194 36.8323 16.4621C35.0615 15.9569 32.8375 16.009 31.4208 16.7173C30.0042 17.4257 27.9313 19.7486 28.3844 20.608C28.7906 21.4673 32.025 21.8215 33.9469 21.9725C36.2229 22.1757 40.2698 22.2798 41.9885 21.9725C42.999 21.8215 45.1708 20.8111 44.4677 20.0507Z" fill="#C9A989"/>
<path d="M52.3543 375.935H37.4376L0.000102282 286.56H17.2709L44.7918 354.581L45.0626 354.456L72.5001 286.56H89.8543L52.3543 375.935Z" fill="#EDECE8"/>
<path d="M107.968 297.915C104.896 297.915 102.495 297.034 100.76 295.269C99.0362 293.493 98.1768 291.331 98.1768 288.79C98.1768 286.331 99.0362 284.206 100.76 282.415C102.495 280.623 104.916 279.727 108.031 279.727C111.224 279.727 113.682 280.623 115.406 282.415C117.14 284.206 118.01 286.331 118.01 288.79C118.01 291.331 117.14 293.493 115.406 295.269C113.682 297.034 111.203 297.915 107.968 297.915ZM116.052 375.935H100.156V308.415H116.052V375.935Z" fill="#EDECE8"/>
<path d="M162.464 377.977C157.699 377.977 153.308 377.06 149.298 375.227C145.298 373.383 141.85 370.821 138.964 367.54C136.074 364.248 133.829 360.435 132.235 356.102C130.636 351.769 129.839 347.133 129.839 342.185C129.839 337.227 130.61 332.597 132.152 328.29C133.704 323.972 135.943 320.175 138.86 316.894C141.777 313.618 145.245 311.05 149.277 309.185C153.303 307.326 157.766 306.394 162.673 306.394C166.339 306.394 169.673 307.04 172.673 308.331C175.673 309.623 178.256 311.269 180.423 313.269C182.589 315.258 184.266 317.321 185.464 319.456L185.131 312.435V283.456H200.964V375.935H185.839V364.581C184.532 366.946 182.761 369.144 180.527 371.185C178.287 373.217 175.657 374.852 172.631 376.102C169.615 377.352 166.225 377.977 162.464 377.977ZM165.36 363.331C168.12 363.331 170.704 362.8 173.11 361.727C175.511 360.644 177.62 359.144 179.443 357.227C181.261 355.3 182.683 353.055 183.714 350.498C184.74 347.93 185.256 345.159 185.256 342.185C185.256 339.201 184.745 336.446 183.735 333.915C182.735 331.373 181.324 329.139 179.506 327.206C177.683 325.279 175.574 323.779 173.173 322.706C170.766 321.639 168.162 321.102 165.36 321.102C161.636 321.102 158.261 322.014 155.235 323.831C152.219 325.639 149.839 328.118 148.089 331.269C146.339 334.425 145.464 338.06 145.464 342.185C145.464 346.175 146.318 349.764 148.027 352.956C149.735 356.154 152.089 358.68 155.089 360.54C158.089 362.404 161.511 363.331 165.36 363.331Z" fill="#EDECE8"/>
<path d="M246.517 377.977C241.959 377.977 237.746 377.06 233.871 375.227C229.996 373.383 226.621 370.821 223.746 367.54C220.881 364.248 218.668 360.435 217.1 356.102C215.527 351.769 214.746 347.133 214.746 342.185C214.746 337.227 215.543 332.597 217.142 328.29C218.736 323.972 220.965 320.175 223.829 316.894C226.704 313.618 230.064 311.05 233.913 309.185C237.756 307.326 241.939 306.394 246.454 306.394C251.965 306.394 256.871 307.592 261.163 309.977C265.454 312.352 268.673 315.644 270.829 319.852V308.415H285.933V375.935H270.829V364.581C268.631 368.779 265.397 372.06 261.121 374.435C256.855 376.795 251.986 377.977 246.517 377.977ZM250.329 363.269C253.09 363.269 255.673 362.738 258.079 361.665C260.48 360.581 262.59 359.092 264.413 357.185C266.23 355.284 267.642 353.055 268.642 350.498C269.652 347.93 270.163 345.159 270.163 342.185C270.163 339.243 269.647 336.493 268.621 333.935C267.59 331.383 266.173 329.139 264.371 327.206C262.579 325.279 260.48 323.779 258.079 322.706C255.673 321.639 253.09 321.102 250.329 321.102C246.689 321.102 243.371 321.977 240.371 323.727C237.381 325.477 234.986 327.93 233.183 331.081C231.392 334.238 230.496 337.935 230.496 342.185C230.496 346.56 231.402 350.326 233.225 353.477C235.043 356.633 237.46 359.055 240.475 360.748C243.501 362.43 246.788 363.269 250.329 363.269Z" fill="#EDECE8"/>
<path d="M401.572 340.998C401.572 341.831 401.541 342.623 401.489 343.373C401.447 344.113 401.364 345.113 401.239 346.373H348.51C349.078 350.055 350.244 353.185 352.01 355.769C353.786 358.352 355.989 360.342 358.614 361.727C361.239 363.102 364.104 363.79 367.218 363.79C371.244 363.79 374.5 362.993 376.989 361.394C379.489 359.8 381.307 357.576 382.447 354.727H399.802C398.968 357.743 397.593 360.654 395.677 363.456C393.77 366.264 391.437 368.748 388.677 370.915C385.927 373.081 382.765 374.8 379.197 376.06C375.625 377.336 371.744 377.977 367.552 377.977C362.468 377.977 357.786 377.045 353.51 375.185C349.244 373.326 345.552 370.758 342.427 367.477C339.302 364.185 336.869 360.373 335.135 356.04C333.411 351.706 332.552 347.092 332.552 342.185C332.552 337.227 333.411 332.597 335.135 328.29C336.869 323.972 339.302 320.175 342.427 316.894C345.552 313.618 349.244 311.05 353.51 309.185C357.786 307.326 362.468 306.394 367.552 306.394C372.619 306.394 377.244 307.31 381.427 309.144C385.604 310.977 389.197 313.508 392.197 316.727C395.197 319.951 397.51 323.644 399.135 327.81C400.76 331.967 401.572 336.363 401.572 340.998ZM349.156 334.102H385.343C385.119 331.56 384.177 329.258 382.51 327.185C380.854 325.102 378.708 323.43 376.072 322.165C373.447 320.889 370.583 320.248 367.489 320.248C364.807 320.248 362.239 320.743 359.781 321.727C357.333 322.717 355.182 324.227 353.322 326.269C351.458 328.3 350.072 330.909 349.156 334.102Z" fill="#EDECE8"/>
<path d="M497.251 306.394C505.736 306.394 512.074 309.279 516.272 315.04C520.481 320.79 522.585 328.967 522.585 339.56V375.935H506.897V339.873C506.897 333.222 505.611 328.425 503.043 325.477C500.486 322.519 497.022 321.04 492.647 321.04C489.84 321.04 487.189 321.894 484.689 323.602C482.199 325.31 480.189 327.701 478.647 330.769C477.116 333.826 476.356 337.389 476.356 341.456V375.935H460.668V339.873C460.668 333.222 459.382 328.425 456.814 325.477C454.257 322.519 450.814 321.04 446.481 321.04C443.632 321.04 440.97 321.894 438.501 323.602C436.027 325.31 434.022 327.701 432.481 330.769C430.949 333.826 430.189 337.389 430.189 341.456V375.935H414.501V308.415H429.335L429.543 318.935C430.72 316.519 432.361 314.373 434.46 312.498C436.553 310.613 439.012 309.123 441.835 308.04C444.668 306.946 447.741 306.394 451.064 306.394C456.715 306.394 461.408 307.701 465.147 310.31C468.897 312.909 471.715 316.68 473.606 321.623C476.491 316.415 479.949 312.576 483.981 310.102C488.007 307.633 492.428 306.394 497.251 306.394Z" fill="#EDECE8"/>
<path d="M616.626 377.831C611.319 377.831 606.256 377.06 601.438 375.519C596.631 373.967 592.22 371.764 588.209 368.915C584.209 366.071 580.73 362.701 577.772 358.81C574.813 354.909 572.522 350.618 570.897 345.935C569.282 341.243 568.48 336.31 568.48 331.144C568.48 325.935 569.282 321.008 570.897 316.352C572.522 311.685 574.813 307.415 577.772 303.54C580.73 299.665 584.209 296.305 588.209 293.456C592.22 290.613 596.631 288.409 601.438 286.852C606.256 285.3 611.319 284.519 616.626 284.519C621.917 284.519 626.97 285.3 631.792 286.852C636.61 288.409 641.032 290.613 645.063 293.456C649.089 296.305 652.574 299.665 655.522 303.54C658.48 307.415 660.772 311.685 662.397 316.352C664.022 321.008 664.834 325.935 664.834 331.144C664.834 336.31 664.022 341.243 662.397 345.935C660.772 350.618 658.48 354.909 655.522 358.81C652.574 362.701 649.089 366.071 645.063 368.915C641.032 371.764 636.615 373.967 631.813 375.519C627.022 377.06 621.959 377.831 616.626 377.831ZM616.626 362.81C621.042 362.81 625.173 362.029 629.022 360.456C632.881 358.873 636.277 356.659 639.209 353.81C642.136 350.967 644.423 347.618 646.063 343.769C647.714 339.909 648.542 335.722 648.542 331.206C648.542 326.654 647.714 322.435 646.063 318.56C644.423 314.685 642.136 311.331 639.209 308.498C636.277 305.654 632.881 303.446 629.022 301.873C625.173 300.29 621.042 299.498 616.626 299.498C612.235 299.498 608.115 300.29 604.272 301.873C600.423 303.446 597.042 305.665 594.126 308.54C591.209 311.404 588.928 314.758 587.292 318.602C585.652 322.451 584.834 326.654 584.834 331.206C584.834 335.722 585.652 339.909 587.292 343.769C588.928 347.618 591.209 350.967 594.126 353.81C597.042 356.659 600.423 358.873 604.272 360.456C608.115 362.029 612.235 362.81 616.626 362.81Z" fill="#EDECE8"/>
<path d="M694.376 375.935H678.481V308.415H693.71V320.644C695.277 316.925 697.595 313.956 700.668 311.748C703.736 309.529 707.46 308.415 711.835 308.415H719.064V322.081H712.689C709.048 322.081 705.845 322.956 703.085 324.706C700.335 326.456 698.194 328.998 696.668 332.331C695.137 335.654 694.376 339.722 694.376 344.54V375.935Z" fill="#EDECE8"/>
<path d="M758.256 377.977C753.491 377.977 749.1 377.06 745.089 375.227C741.089 373.383 737.642 370.821 734.756 367.54C731.866 364.248 729.621 360.435 728.027 356.102C726.428 351.769 725.631 347.133 725.631 342.185C725.631 337.227 726.402 332.597 727.944 328.29C729.496 323.972 731.735 320.175 734.652 316.894C737.569 313.618 741.037 311.05 745.069 309.185C749.095 307.326 753.558 306.394 758.464 306.394C762.131 306.394 765.464 307.04 768.464 308.331C771.464 309.623 774.048 311.269 776.214 313.269C778.381 315.258 780.058 317.321 781.256 319.456L780.923 312.435V283.456H796.756V375.935H781.631V364.581C780.324 366.946 778.553 369.144 776.319 371.185C774.079 373.217 771.449 374.852 768.423 376.102C765.407 377.352 762.017 377.977 758.256 377.977ZM761.152 363.331C763.912 363.331 766.496 362.8 768.902 361.727C771.303 360.644 773.412 359.144 775.235 357.227C777.053 355.3 778.475 353.055 779.506 350.498C780.532 347.93 781.048 345.159 781.048 342.185C781.048 339.201 780.537 336.446 779.527 333.915C778.527 331.373 777.115 329.139 775.298 327.206C773.475 325.279 771.366 323.779 768.964 322.706C766.558 321.639 763.954 321.102 761.152 321.102C757.428 321.102 754.053 322.014 751.027 323.831C748.011 325.639 745.631 328.118 743.881 331.269C742.131 334.425 741.256 338.06 741.256 342.185C741.256 346.175 742.11 349.764 743.819 352.956C745.527 356.154 747.881 358.68 750.881 360.54C753.881 362.404 757.303 363.331 761.152 363.331Z" fill="#EDECE8"/>
<path d="M879.559 340.998C879.559 341.831 879.527 342.623 879.475 343.373C879.434 344.113 879.35 345.113 879.225 346.373H826.496C827.064 350.055 828.231 353.185 829.996 355.769C831.772 358.352 833.975 360.342 836.6 361.727C839.225 363.102 842.09 363.79 845.205 363.79C849.231 363.79 852.486 362.993 854.975 361.394C857.475 359.8 859.293 357.576 860.434 354.727H877.788C876.955 357.743 875.58 360.654 873.663 363.456C871.757 366.264 869.423 368.748 866.663 370.915C863.913 373.081 860.751 374.8 857.184 376.06C853.611 377.336 849.731 377.977 845.538 377.977C840.455 377.977 835.772 377.045 831.496 375.185C827.231 373.326 823.538 370.758 820.413 367.477C817.288 364.185 814.856 360.373 813.121 356.04C811.397 351.706 810.538 347.092 810.538 342.185C810.538 337.227 811.397 332.597 813.121 328.29C814.856 323.972 817.288 320.175 820.413 316.894C823.538 313.618 827.231 311.05 831.496 309.185C835.772 307.326 840.455 306.394 845.538 306.394C850.606 306.394 855.231 307.31 859.413 309.144C863.59 310.977 867.184 313.508 870.184 316.727C873.184 319.951 875.496 323.644 877.121 327.81C878.746 331.967 879.559 336.363 879.559 340.998ZM827.142 334.102H863.33C863.106 331.56 862.163 329.258 860.496 327.185C858.84 325.102 856.694 323.43 854.059 322.165C851.434 320.889 848.569 320.248 845.475 320.248C842.793 320.248 840.225 320.743 837.767 321.727C835.319 322.717 833.168 324.227 831.309 326.269C829.444 328.3 828.059 330.909 827.142 334.102Z" fill="#EDECE8"/>
<path d="M975.238 306.394C983.722 306.394 990.06 309.279 994.258 315.04C998.467 320.79 1000.57 328.967 1000.57 339.56V375.935H984.883V339.873C984.883 333.222 983.597 328.425 981.029 325.477C978.472 322.519 975.008 321.04 970.633 321.04C967.826 321.04 965.175 321.894 962.675 323.602C960.185 325.31 958.175 327.701 956.633 330.769C955.102 333.826 954.342 337.389 954.342 341.456V375.935H938.654V339.873C938.654 333.222 937.368 328.425 934.8 325.477C932.243 322.519 928.8 321.04 924.467 321.04C921.618 321.04 918.956 321.894 916.488 323.602C914.014 325.31 912.008 327.701 910.467 330.769C908.935 333.826 908.175 337.389 908.175 341.456V375.935H892.488V308.415H907.321L907.529 318.935C908.706 316.519 910.347 314.373 912.446 312.498C914.54 310.613 916.998 309.123 919.821 308.04C922.654 306.946 925.727 306.394 929.05 306.394C934.701 306.394 939.394 307.701 943.133 310.31C946.883 312.909 949.701 316.68 951.592 321.623C954.477 316.415 957.935 312.576 961.967 310.102C965.993 307.633 970.415 306.394 975.238 306.394Z" fill="#EDECE8"/>
<path d="M933.596 590.786C928.773 591.937 924.981 592 922.221 590.974C919.471 589.958 917.637 587.708 916.721 584.224C916.538 583.432 916.877 582.932 917.742 582.724C918.2 582.615 919.304 582.536 921.054 582.495C922.815 582.443 925.601 581.963 929.408 581.057C938.283 578.932 946.018 575.786 952.617 571.62C959.226 567.443 964.122 562.87 967.304 557.911C970.481 552.953 971.538 548.255 970.471 543.807C969.163 538.364 965.44 535.37 959.304 534.828C953.179 534.286 945.721 535.073 936.929 537.182L928.325 539.37C928.085 543.609 927.929 547.51 927.846 551.078C927.762 554.635 927.664 557.74 927.554 560.391C927.33 569.422 927.148 575.516 927.012 578.682C924.663 579.239 922.481 579.099 920.471 578.266C918.455 577.422 917.231 576.109 916.804 574.328C916.471 572.911 916.434 571.031 916.7 568.682L916.825 567.161L917.221 562.12C919.413 533.151 922.158 511.969 925.45 498.578C921.768 500.37 918.137 502.891 914.554 506.141C914.19 506.38 913.705 506.76 913.096 507.286C912.497 507.802 912.038 508.099 911.721 508.182C910.945 508.365 909.841 508.031 908.408 507.182C906.966 506.338 906.148 505.516 905.95 504.724C910.815 501.266 915.226 498.49 919.2 496.391C923.169 494.281 928.039 492.536 933.804 491.161C941.497 489.318 948.617 489.005 955.158 490.224C961.7 491.448 965.856 495.76 967.637 503.161C969.065 509.151 967.851 514.484 963.992 519.161C960.127 523.828 954.976 527.797 948.533 531.057C957.601 530.13 964.544 530.974 969.367 533.599C974.2 536.224 977.117 539.641 978.117 543.849C979.809 550.922 978.346 557.766 973.721 564.391C969.096 571.016 962.96 576.661 955.325 581.328C947.684 585.995 940.44 589.146 933.596 590.786ZM928.408 534.661C938.434 531.844 946.398 527.901 952.304 522.828C958.205 517.745 960.289 511.594 958.554 504.37C956.315 495.026 947.887 492.099 933.262 495.599C930.913 505.047 929.294 518.068 928.408 534.661Z" fill="#EDECE8"/>
<path d="M997.462 568.456C994.889 569.065 992.462 568.372 990.17 566.372C987.878 564.372 986.347 561.742 985.566 558.476C984.889 555.659 984.67 552.008 984.92 547.518C985.16 543.018 985.743 539.018 986.67 535.518C987.587 532.008 988.67 530.096 989.92 529.789C990.472 529.664 991.384 529.763 992.649 530.081C993.91 530.388 995.071 530.862 996.128 531.497C995.087 534.305 994.222 538.18 993.545 543.122C992.878 548.055 992.941 552.154 993.733 555.414C994.076 556.888 994.654 558.372 995.462 559.872C996.264 561.372 997.41 561.945 998.899 561.581C1001.77 560.904 1004.45 556.872 1006.92 549.497C1009.39 542.112 1011.27 534.763 1012.57 527.456C1017.41 527.122 1020.06 527.888 1020.5 529.747C1020.55 529.914 1020.35 531.154 1019.92 533.456C1019.21 537.68 1018.66 541.56 1018.27 545.101C1017.88 548.633 1017.97 551.601 1018.55 554.018C1019.2 556.758 1020.58 557.872 1022.69 557.372C1024.32 556.987 1026.09 555.758 1028.02 553.685C1029.95 551.617 1031.78 548.872 1033.52 545.456C1035.26 542.029 1036.58 538.237 1037.48 534.081L1039.57 535.039C1038.86 539.664 1037.53 543.976 1035.61 547.976C1033.69 551.976 1031.38 555.305 1028.69 557.956C1025.99 560.612 1023.21 562.284 1020.34 562.976C1016.9 563.799 1014.42 563.138 1012.88 560.997C1011.34 558.862 1010.09 555.81 1009.15 551.851C1007.47 556.518 1005.74 560.305 1003.96 563.206C1002.2 566.096 1000.03 567.841 997.462 568.456Z" fill="#EDECE8"/>
<path d="M1054.27 557.444C1048.84 558.747 1044.45 558.137 1041.09 555.611C1037.73 553.085 1035.52 549.648 1034.48 545.299C1033.75 542.257 1033.78 540.002 1034.59 538.528C1035.39 537.059 1036.4 535.851 1037.61 534.903C1038.82 533.944 1039.51 533.33 1039.69 533.049C1043.45 526.715 1045.95 520.481 1047.17 514.34L1046.9 513.174C1046.2 510.299 1046.18 508.049 1046.82 506.424C1047.45 504.799 1048.55 503.799 1050.11 503.424C1051.83 503.007 1052.95 503.559 1053.46 505.069C1053.56 505.476 1053.6 506.085 1053.59 506.903C1053.57 507.71 1053.67 508.543 1053.88 509.403C1054.24 510.892 1054.84 512.398 1055.69 513.924C1056.55 515.439 1057.82 517.476 1059.5 520.028C1061.57 523.153 1063.23 525.882 1064.48 528.215C1065.74 530.549 1066.68 533.002 1067.29 535.569C1067.61 536.892 1067.84 538.523 1067.98 540.465C1072.97 537.872 1076.51 532.377 1078.61 523.986L1080.25 524.694C1079.76 529.502 1078.46 533.601 1076.34 536.986C1074.22 540.377 1071.38 542.788 1067.79 544.215C1067.29 547.622 1065.83 550.46 1063.4 552.736C1060.98 554.997 1057.94 556.569 1054.27 557.444ZM1058.71 542.444C1058.79 541.684 1058.63 540.444 1058.21 538.736C1057.53 536.267 1056.67 533.882 1055.63 531.59C1054.59 529.288 1053.14 526.335 1051.29 522.736L1049.23 518.778C1047.01 526.319 1044.79 531.997 1042.59 535.799C1044.45 537.747 1046.8 539.34 1049.65 540.59C1052.49 541.84 1055.51 542.46 1058.71 542.444ZM1052.25 552.486C1053.79 552.127 1055.15 551.398 1056.34 550.299C1057.51 549.189 1058.27 547.814 1058.61 546.174C1055.44 546.273 1052.36 545.752 1049.36 544.611C1046.37 543.476 1043.86 542.085 1041.82 540.444C1040.78 540.934 1040.49 542.106 1040.94 543.965C1041.62 546.788 1042.99 549.08 1045.04 550.84C1047.11 552.59 1049.51 553.142 1052.25 552.486Z" fill="#EDECE8"/>
<path d="M1091.5 490.282C1089.88 490.672 1088.4 490.615 1087.08 490.115C1085.76 489.615 1084.93 488.625 1084.58 487.136C1084.15 485.36 1084.76 483.547 1086.42 481.698C1088.07 479.855 1090.03 478.657 1092.29 478.115C1095.64 477.313 1097.66 478.344 1098.36 481.219C1098.74 482.86 1098.22 484.657 1096.79 486.615C1095.36 488.563 1093.59 489.782 1091.5 490.282ZM1090.33 546.219C1087.07 546.995 1084.3 546.625 1082.04 545.115C1079.79 543.605 1078.31 541.323 1077.58 538.282C1076.83 535.188 1076.7 530.761 1077.17 525.011C1077.64 519.25 1078.74 514.026 1080.46 509.344C1082.18 504.667 1084.4 502 1087.13 501.344C1088.14 501.094 1089.04 501.188 1089.83 501.615C1090.64 502.047 1091.17 502.803 1091.44 503.886C1091.61 504.584 1091.51 505.61 1091.17 506.969C1090.83 508.318 1090.24 510.282 1089.38 512.865C1087.88 517.589 1086.78 521.698 1086.11 525.198C1085.42 528.698 1085.42 531.844 1086.08 534.636C1086.67 537.053 1087.49 538.589 1088.54 539.24C1089.61 539.896 1091.04 540.006 1092.83 539.573C1098.99 538.105 1103.66 530.688 1106.86 517.323L1109.08 518.782C1107.99 526.282 1105.79 532.443 1102.5 537.261C1099.21 542.068 1095.15 545.053 1090.33 546.219Z" fill="#EDECE8"/>
<path d="M1148.53 531.047C1145.58 531.755 1143.1 531.567 1141.1 530.484C1139.11 529.39 1137.83 527.64 1137.24 525.234C1137 524.224 1136.9 523.015 1136.93 521.609C1136.97 520.192 1137.02 518.776 1137.1 517.359C1137.35 513.526 1137.26 510.755 1136.85 509.047C1136.47 507.494 1135.81 506.442 1134.85 505.901C1133.89 505.349 1132.83 505.208 1131.66 505.484C1127.54 506.474 1124 510.057 1121.03 516.234C1118.08 522.416 1115.14 530.046 1112.22 539.13C1108.87 539.921 1106.07 539.39 1103.81 537.547L1104.18 534.38C1106.1 522.171 1106.41 513.38 1105.12 508.005C1105.58 507.145 1106.32 506.291 1107.35 505.442C1108.38 504.583 1109.43 504.02 1110.51 503.755C1111.83 503.437 1112.91 503.505 1113.76 503.963C1114.62 504.411 1115.18 505.182 1115.43 506.276C1115.93 508.375 1116.1 511.994 1115.95 517.13C1118.33 511.63 1121.05 506.953 1124.12 503.088C1127.19 499.213 1130.55 496.838 1134.2 495.963C1137.31 495.229 1139.98 495.729 1142.2 497.463C1144.42 499.203 1145.89 501.547 1146.6 504.505C1147 506.203 1147.17 507.88 1147.12 509.547C1147.08 511.203 1146.86 513.104 1146.47 515.255C1145.93 518.838 1145.85 521.453 1146.24 523.088C1146.52 524.244 1146.99 525.026 1147.66 525.442C1148.34 525.859 1149.07 525.979 1149.85 525.797C1152.41 525.187 1154.77 522.755 1156.93 518.505C1159.08 514.244 1160.78 509.411 1162.03 504.005L1164.41 505.151C1163.16 512.276 1161.29 518.119 1158.81 522.672C1156.32 527.213 1152.89 530.005 1148.53 531.047Z" fill="#EDECE8"/>
<path d="M1178.6 526.787C1173.7 527.964 1169.57 527.563 1166.21 525.579C1162.86 523.594 1160.7 520.532 1159.71 516.391C1158.62 511.881 1158.97 506.636 1160.75 500.662C1162.51 494.693 1165.34 489.37 1169.25 484.704C1173.15 480.026 1177.4 477.131 1182 476.016C1184.4 475.448 1186.56 475.573 1188.48 476.391C1190.39 477.198 1191.69 479.011 1192.37 481.829C1193.26 485.553 1192.66 489.412 1190.58 493.412C1188.5 497.412 1185.42 501.011 1181.37 504.204C1177.33 507.386 1173 509.808 1168.39 511.474C1168.4 512.297 1168.54 513.204 1168.79 514.204C1169.27 516.235 1170.32 518.131 1171.93 519.891C1173.54 521.641 1176.22 522.073 1179.96 521.183C1184.69 520.047 1189.07 516.964 1193.1 511.933C1197.13 506.907 1199.96 501.136 1201.6 494.62L1204.41 495.933C1202.96 503.683 1199.84 510.391 1195.08 516.058C1190.32 521.724 1184.82 525.297 1178.6 526.787ZM1168.62 506.87C1171.37 505.87 1174.24 503.99 1177.23 501.224C1180.21 498.448 1182.57 495.349 1184.31 491.933C1186.04 488.516 1186.59 485.448 1185.93 482.724C1185.73 481.865 1185.42 481.318 1185.04 481.079C1184.65 480.844 1184.1 480.808 1183.39 480.974C1181.14 481.516 1178.93 483.183 1176.77 485.974C1174.6 488.756 1172.78 492.047 1171.31 495.849C1169.84 499.657 1168.94 503.329 1168.62 506.87Z" fill="#EDECE8"/>
<path d="M1218.68 518.07C1213.25 519.372 1208.85 518.763 1205.5 516.237C1202.14 513.711 1199.93 510.273 1198.89 505.924C1198.16 502.883 1198.19 500.627 1199 499.153C1199.8 497.685 1200.81 496.476 1202.02 495.528C1203.22 494.57 1203.92 493.956 1204.1 493.674C1207.86 487.341 1210.35 481.107 1211.58 474.966L1211.31 473.799C1210.61 470.924 1210.58 468.674 1211.22 467.049C1211.86 465.424 1212.96 464.424 1214.52 464.049C1216.23 463.633 1217.35 464.185 1217.87 465.695C1217.96 466.101 1218.01 466.711 1218 467.528C1217.98 468.336 1218.08 469.169 1218.29 470.028C1218.65 471.518 1219.25 473.023 1220.1 474.549C1220.96 476.065 1222.23 478.101 1223.91 480.653C1225.98 483.778 1227.64 486.508 1228.89 488.841C1230.15 491.174 1231.09 493.627 1231.7 496.195C1232.02 497.518 1232.25 499.148 1232.39 501.091C1237.38 498.497 1240.92 493.002 1243.02 484.612L1244.66 485.32C1244.17 490.127 1242.87 494.226 1240.75 497.612C1238.63 501.002 1235.79 503.414 1232.2 504.841C1231.7 508.247 1230.23 511.086 1227.81 513.362C1225.39 515.622 1222.35 517.195 1218.68 518.07ZM1223.12 503.07C1223.2 502.31 1223.04 501.07 1222.62 499.362C1221.94 496.893 1221.08 494.508 1220.04 492.216C1219 489.914 1217.55 486.961 1215.7 483.362L1213.64 479.403C1211.42 486.945 1209.2 492.622 1207 496.424C1208.85 498.372 1211.21 499.966 1214.06 501.216C1216.9 502.466 1219.92 503.086 1223.12 503.07ZM1216.66 513.112C1218.2 512.752 1219.56 512.023 1220.75 510.924C1221.92 509.815 1222.68 508.44 1223.02 506.799C1219.85 506.898 1216.77 506.377 1213.77 505.237C1210.78 504.101 1208.27 502.711 1206.22 501.07C1205.19 501.56 1204.9 502.732 1205.35 504.591C1206.03 507.414 1207.4 509.706 1209.45 511.466C1211.52 513.216 1213.92 513.768 1216.66 513.112Z" fill="#EDECE8"/>
<path d="M1259.64 508.262C1254.21 509.564 1249.81 508.954 1246.45 506.428C1243.09 503.902 1240.89 500.465 1239.85 496.116C1239.11 493.074 1239.15 490.819 1239.95 489.345C1240.76 487.876 1241.76 486.668 1242.97 485.72C1244.18 484.762 1244.87 484.147 1245.06 483.866C1248.82 477.532 1251.31 471.298 1252.54 465.157L1252.26 463.991C1251.57 461.116 1251.54 458.866 1252.18 457.241C1252.82 455.616 1253.92 454.616 1255.47 454.241C1257.19 453.824 1258.31 454.376 1258.83 455.887C1258.92 456.293 1258.96 456.902 1258.95 457.72C1258.94 458.527 1259.04 459.361 1259.24 460.22C1259.6 461.709 1260.21 463.215 1261.06 464.741C1261.92 466.256 1263.19 468.293 1264.87 470.845C1266.94 473.97 1268.6 476.699 1269.85 479.032C1271.11 481.366 1272.05 483.819 1272.66 486.387C1272.98 487.709 1273.21 489.34 1273.35 491.282C1278.33 488.689 1281.87 483.194 1283.97 474.803L1285.62 475.512C1285.13 480.319 1283.83 484.418 1281.7 487.803C1279.59 491.194 1276.74 493.605 1273.16 495.032C1272.66 498.439 1271.19 501.277 1268.76 503.553C1266.35 505.814 1263.31 507.387 1259.64 508.262ZM1264.08 493.262C1264.16 492.501 1263.99 491.262 1263.58 489.553C1262.89 487.084 1262.04 484.699 1260.99 482.407C1259.95 480.105 1258.5 477.152 1256.66 473.553L1254.6 469.595C1252.37 477.137 1250.16 482.814 1247.95 486.616C1249.81 488.564 1252.17 490.157 1255.01 491.407C1257.86 492.657 1260.88 493.277 1264.08 493.262ZM1257.62 503.303C1259.16 502.944 1260.52 502.215 1261.7 501.116C1262.88 500.006 1263.64 498.631 1263.97 496.991C1260.81 497.09 1257.72 496.569 1254.72 495.428C1251.73 494.293 1249.22 492.902 1247.18 491.262C1246.15 491.751 1245.86 492.923 1246.31 494.782C1246.98 497.605 1248.35 499.897 1250.41 501.657C1252.48 503.407 1254.88 503.959 1257.62 503.303Z" fill="#EDECE8"/>
</svg>
